HIERARCHY
ROOT Hips
{
  OFFSET 66.9386 79.8353 15.3019
  CHANNELS 6 Xposition Yposition Zposition Zrotation Xrotation Yrotation
  JOINT spine
  {
    OFFSET 0 6.84637 0.3937
    CHANNELS 3 Zrotation Xrotation Yrotation
    JOINT spine1
    {
      OFFSET 0 9.49621 0
      CHANNELS 3 Zrotation Xrotation Yrotation
      JOINT spine2
      {
        OFFSET 0 9.09909 0
        CHANNELS 3 Zrotation Xrotation Yrotation
        JOINT Neck
        {
          OFFSET 0 23.3612 1.11378
          CHANNELS 3 Zrotation Xrotation Yrotation
          JOINT Head
          {
            OFFSET 0 7.05802 0
            CHANNELS 3 Zrotation Xrotation Yrotation
            End Site
            {
              OFFSET 0 17.0844 -5.63419
            }
          }
        }
        JOINT RightShoulder
        {
          OFFSET -3.83136 9.82631 -0.533491
          CHANNELS 3 Zrotation Xrotation Yrotation
          JOINT RightArm
          {
            OFFSET 0 12.8881 0
            CHANNELS 3 Zrotation Xrotation Yrotation
            JOINT RightArmRoll
            {
              OFFSET 0 6.50617 0
              CHANNELS 3 Zrotation Xrotation Yrotation
              JOINT RightForeArm
              {
                OFFSET 0 18.9501 0
                CHANNELS 3 Zrotation Xrotation Yrotation
                JOINT RightForeArmRoll
                {
                  OFFSET 0 7.30092 0
                  CHANNELS 3 Zrotation Xrotation Yrotation
                  JOINT RightHand
                  {
                    OFFSET 0 14.6514 0
                    CHANNELS 3 Zrotation Xrotation Yrotation
                    End Site
                    {
                      OFFSET 0 0 0
                    }
                  }
                }
              }
            }
          }
        }
        JOINT LeftShoulder
        {
          OFFSET 3.83136 9.82631 -0.533491
          CHANNELS 3 Zrotation Xrotation Yrotation
          JOINT LeftArm
          {
            OFFSET 0 12.8881 0
            CHANNELS 3 Zrotation Xrotation Yrotation
            JOINT LeftArmRoll
            {
              OFFSET 0 6.50617 0
              CHANNELS 3 Zrotation Xrotation Yrotation
              JOINT LeftForeArm
              {
                OFFSET 0 18.9501 0
                CHANNELS 3 Zrotation Xrotation Yrotation
                JOINT LeftForeArmRoll
                {
                  OFFSET 0 7.30093 0
                  CHANNELS 3 Zrotation Xrotation Yrotation
                  JOINT LeftHand
                  {
                    OFFSET 0 14.6514 0
                    CHANNELS 3 Zrotation Xrotation Yrotation
                    End Site
                    {
                      OFFSET 0 0 0
                    }
                  }
                }
              }
            }
          }
        }
      }
    }
  }
  JOINT RightUpLeg
  {
    OFFSET -6.06837 -1.11278 -0.933477
    CHANNELS 3 Zrotation Xrotation Yrotation
    JOINT RightUpLegRoll
    {
      OFFSET 0 17.1796 0
      CHANNELS 3 Zrotation Xrotation Yrotation
      JOINT RightLeg
      {
        OFFSET 0 -21.2743 0
        CHANNELS 3 Zrotation Xrotation Yrotation
        JOINT RightLegRoll
        {
          OFFSET 0 21.3439 0
          CHANNELS 3 Zrotation Xrotation Yrotation
          JOINT RightFoot
          {
            OFFSET 0 17.7652 0
            CHANNELS 3 Zrotation Xrotation Yrotation
            JOINT RightToeBase
            {
              OFFSET 0 14.8508 0
              CHANNELS 3 Zrotation Xrotation Yrotation
              End Site
              {
                OFFSET 0.0062947 7.19214 -0.829004
              }
            }
          }
        }
      }
    }
  }
  JOINT LeftUpLeg
  {
    OFFSET 6.06837 -1.11278 -0.933477
    CHANNELS 3 Zrotation Xrotation Yrotation
    JOINT LeftUpLegRoll
    {
      OFFSET 0 17.1797 0
      CHANNELS 3 Zrotation Xrotation Yrotation
      JOINT LeftLeg
      {
        OFFSET 0 21.2742 0
        CHANNELS 3 Zrotation Xrotation Yrotation
        JOINT LeftLegRoll
        {
          OFFSET 0 21.5412 0
          CHANNELS 3 Zrotation Xrotation Yrotation
          JOINT LeftFoot
          {
            OFFSET 0 17.5679 0
            CHANNELS 3 Zrotation Xrotation Yrotation
            JOINT LeftToeBase
            {
              OFFSET 0 14.8508 0
              CHANNELS 3 Zrotation Xrotation Yrotation
              End Site
              {
                OFFSET -0.0282102 7.19214 -0.829005
              }
            }
          }
        }
      }
    }
  }
}
MOTION
Frames: 11
Frame Time: 0.00208333
52.2187 90.7369 -2.60918 0.730187 1.41683 -24.0822 0.022438 -1.05407 0.136115 0.0449543 1.89473 0.261375 0.0418586 3.5398 0.260794 -5.95417 35.185 12.549 -5.72728 -6.88419 8.79745 64.4664 11.0377 5.39022 107.078 22.5606 -45.8314 -7.78907e-008 -1.29604e-007 -3.84131e-006 -45.5087 84.5484 38.1387 6.39534e-006 2.30686e-006 -2.99999 8.03014 -4.9511 0.697585 -58.7309 -5.31022 3.25948 -102.978 20.0283 15.2222 -1.66985e-006 -1.44915e-006 8.33877e-006 167.535 79.8517 -158.849 1.26101e-005 7.22856e-006 3 -8.03008 -4.95123 -0.697588 170.895 14.0032 3.89683 -180 7.01537e-015 178.881 178.476 14.9103 179.604 -7.70778e-007 -4.95864e-006 0.117443 -17.1924 65.8425 17.9192 8.13207 25.2329 -3.48585 -172.314 7.34359 -4.42037 4.54188e-006 -4.6773e-006 -1.11501 -4.90254 -15.2368 -0.163617 -2.56707e-006 -4.94933e-006 -0.225613 18.5263 67.7441 -19.3393 -8.1365 25.2327 3.48774 
52.1369 90.7559 -2.6003 0.774996 1.42658 -24.1411 0.0211519 -1.06138 0.134732 0.0424655 1.8801 0.258659 0.0393999 3.52517 0.258118 -5.87107 35.1764 12.6023 -5.89853 -6.9573 8.85982 64.5259 11.0182 5.36551 106.847 22.3598 -45.3932 -7.78906e-008 -1.29604e-007 -3.84131e-006 -46.8639 84.6137 39.4275 6.39534e-006 2.30686e-006 -2.99999 8.03014 -4.9511 0.697585 -58.7275 -5.31267 3.26082 -103.246 19.9947 15.5315 -1.66985e-006 -1.44915e-006 8.33877e-006 167.437 79.6901 -158.648 1.26101e-005 7.22856e-006 3 -8.03008 -4.95123 -0.697588 170.908 14.0371 3.88991 -180 7.01537e-015 178.882 178.472 14.9312 179.605 -7.70778e-007 -4.95864e-006 0.119048 -17.2031 65.858 17.9291 8.13207 25.2329 -3.48585 -172.311 7.3331 -4.42152 4.54188e-006 -4.6773e-006 -1.11501 -4.90044 -15.2348 -0.163585 -2.56707e-006 -4.94933e-006 -0.225571 18.5215 67.7383 -19.3341 -8.1365 25.2327 3.48774 
52.0569 90.7742 -2.6074 0.819965 1.436 -24.1996 0.0197264 -1.06874 0.133367 0.0397006 1.86537 0.256007 0.0366642 3.51044 0.255511 -5.78485 35.1692 12.6536 -6.07161 -7.03071 8.92154 64.5882 10.9994 5.34056 106.616 22.1519 -44.9512 -7.78906e-008 -1.29604e-007 -3.84131e-006 -48.2528 84.6765 40.7495 6.39534e-006 2.30686e-006 -2.99999 8.03014 -4.9511 0.697585 -58.723 -5.31509 3.26208 -103.513 19.9597 15.8384 -1.66985e-006 -1.44915e-006 8.33877e-006 167.346 79.5265 -158.455 1.26101e-005 7.22856e-006 3 -8.03008 -4.95123 -0.697588 170.921 14.0706 3.88413 -180 7.01538e-015 178.883 178.467 14.952 179.606 -7.70778e-007 -4.95864e-006 0.120725 -17.2142 65.874 17.9394 8.13207 25.2329 -3.48585 -172.31 7.32173 -4.42204 4.54188e-006 -4.6773e-006 -1.11502 -4.89819 -15.2314 -0.163543 -2.56707e-006 -4.94933e-006 -0.225509 18.5165 67.7322 -19.3287 -8.1365 25.2327 3.48774 
51.9757 90.798 -2.59646 0.865053 1.44519 -24.2579 0.0182033 -1.07614 0.132015 0.0367421 1.85058 0.253401 0.0337342 3.49565 0.252953 -5.69646 35.163 12.7036 -6.24593 -7.10433 8.98279 64.6524 10.9812 5.31544 106.387 21.9376 -44.5071 -7.78907e-008 -1.29604e-007 -3.84131e-006 -49.6745 84.7366 42.1039 6.39534e-006 2.30686e-006 -2.99999 8.03014 -4.9511 0.697585 -58.7177 -5.31749 3.26328 -103.78 19.9235 16.1436 -1.66985e-006 -1.44915e-006 8.33877e-006 167.263 79.3613 -158.269 1.26101e-005 7.22856e-006 3 -8.03008 -4.95123 -0.697588 170.932 14.1037 3.87916 -180 7.01538e-015 178.885 178.461 14.9727 179.606 -7.70778e-007 -4.95864e-006 0.122453 -17.2254 65.8902 17.9498 8.13207 25.2329 -3.48585 -172.309 7.30973 -4.42214 4.54188e-006 -4.6773e-006 -1.11502 -4.89584 -15.2271 -0.163493 -2.56707e-006 -4.94933e-006 -0.225433 18.5113 67.7259 -19.3231 -8.1365 25.2327 3.48774 
51.8975 90.7541 -2.58772 0.910216 1.45425 -24.316 0.0166243 -1.08355 0.130671 0.0336725 1.83576 0.25082 0.0306926 3.48082 0.250422 -5.60681 35.1574 12.7528 -6.4209 -7.17805 9.04381 64.7177 10.9632 5.29022 106.16 21.7176 -44.0627 -7.78906e-008 -1.29604e-007 -3.84131e-006 -51.1278 84.7938 43.4897 6.39534e-006 2.30686e-006 -2.99999 8.03014 -4.9511 0.697585 -58.712 -5.31988 3.26444 -104.046 19.8865 16.4477 -1.66985e-006 -1.44915e-006 8.33877e-006 167.187 79.1953 -158.089 1.26101e-005 7.22856e-006 3 -8.03008 -4.95123 -0.697588 170.943 14.1367 3.87466 -180 7.01538e-015 178.886 178.455 14.9934 179.607 -7.70778e-007 -4.95864e-006 0.12421 -17.2367 65.9066 17.9603 8.13207 25.2329 -3.48585 -172.308 7.29737 -4.422 4.54188e-006 -4.6773e-006 -1.11503 -4.89344 -15.2222 -0.163439 -2.56707e-006 -4.94933e-006 -0.22535 18.5061 67.7195 -19.3175 -8.1365 25.2327 3.48774 
51.821 90.7692 -2.59846 0.955412 1.46326 -24.374 0.015031 -1.09097 0.129328 0.030574 1.82092 0.248246 0.0276221 3.46599 0.247898 -5.51685 35.1519 12.8018 -6.5959 -7.25177 9.10478 64.7833 10.9453 5.26497 105.937 21.4925 -43.6198 -7.78906e-008 -1.29604e-007 -3.84131e-006 -52.6114 84.8479 44.9056 6.39534e-006 2.30686e-006 -2.99999 8.03014 -4.9511 0.697585 -58.7061 -5.32227 3.2656 -104.311 19.8489 16.7515 -1.66985e-006 -1.44915e-006 8.33877e-006 167.116 79.029 -157.914 1.26101e-005 7.22856e-006 3 -8.03008 -4.95123 -0.697588 170.954 14.1696 3.87027 -180 7.01539e-015 178.888 178.449 15.014 179.608 -7.70778e-007 -4.95864e-006 0.125974 -17.2481 65.923 17.9709 8.13207 25.2329 -3.48585 -172.307 7.28493 -4.42179 4.54188e-006 -4.6773e-006 -1.11503 -4.89102 -15.2171 -0.163384 -2.56707e-006 -4.94933e-006 -0.225263 18.5009 67.7131 -19.3118 -8.1365 25.2327 3.48774 
51.7306 90.729 -2.59401 1.0006 1.47232 -24.4322 0.0134651 -1.09837 0.127981 0.0275292 1.8061 0.245659 0.0246055 3.45117 0.245361 -5.42749 35.1461 12.8512 -6.77035 -7.32539 9.16593 64.8483 10.9273 5.23978 105.72 21.2631 -43.18 -7.78907e-008 -1.29604e-007 -3.84131e-006 -54.1237 84.8987 46.3501 6.39534e-006 2.30686e-006 -2.99999 8.03014 -4.9511 0.697585 -58.7005 -5.32466 3.26677 -104.577 19.8109 17.0556 -1.66985e-006 -1.44915e-006 8.33877e-006 167.049 78.863 -157.744 1.26101e-005 7.22856e-006 3 -8.03008 -4.95123 -0.697588 170.965 14.2026 3.86565 -180 7.01539e-015 178.889 178.443 15.0347 179.609 -7.70778e-007 -4.95864e-006 0.127723 -17.2595 65.9393 17.9815 8.13207 25.2329 -3.48585 -172.306 7.27266 -4.42171 4.54188e-006 -4.6773e-006 -1.11504 -4.88863 -15.2123 -0.163331 -2.56707e-006 -4.94933e-006 -0.225182 18.4958 67.7068 -19.3062 -8.1365 25.2327 3.48774 
51.6281 90.7426 -2.588 1.04574 1.48153 -24.4905 0.0119684 -1.10576 0.126625 0.0246202 1.79133 0.24304 0.0217253 3.4364 0.242789 -5.33968 35.1396 12.9015 -6.94363 -7.3988 9.22747 64.9119 10.9089 5.21472 105.508 21.0303 -42.7451 -7.78906e-008 -1.29604e-007 -3.84131e-006 -55.6625 84.9461 47.8212 6.39534e-006 2.30686e-006 -2.99999 8.03014 -4.9511 0.697585 -58.6954 -5.32707 3.26799 -104.842 19.773 17.3607 -1.66985e-006 -1.44915e-006 8.33877e-006 166.987 78.6979 -157.578 1.26101e-005 7.22856e-006 3 -8.03008 -4.95123 -0.697588 170.977 14.2358 3.86045 -180 7.01539e-015 178.891 178.438 15.0554 179.61 -7.70778e-007 -4.95864e-006 0.129437 -17.2707 65.9554 17.9919 8.13207 25.2329 -3.48585 -172.305 7.26084 -4.42193 4.54188e-006 -4.6773e-006 -1.11504 -4.88631 -15.2083 -0.163284 -2.56707e-006 -4.94933e-006 -0.22511 18.4907 67.7005 -19.3007 -8.1365 25.2327 3.48774 
51.5483 90.7164 -2.586 1.09078 1.49099 -24.5492 0.0105826 -1.11311 0.125255 0.0219296 1.77663 0.24037 0.0190643 3.4217 0.240162 -5.25432 35.1319 12.9533 -7.11515 -7.47192 9.2896 64.9732 10.8899 5.18987 105.303 20.795 -42.3168 -7.78906e-008 -1.29604e-007 -3.84131e-006 -57.2257 84.9899 49.3169 6.39534e-006 2.30686e-006 -2.99999 8.03014 -4.9511 0.697585 -58.6913 -5.3295 3.26927 -105.108 19.7352 17.6674 -1.66985e-006 -1.44915e-006 8.33877e-006 166.928 78.5344 -157.415 1.26101e-005 7.22856e-006 3 -8.03008 -4.95123 -0.697588 170.99 14.2694 3.85433 -180 7.0154e-015 178.892 178.433 15.0762 179.61 -7.70778e-007 -4.95864e-006 0.131092 -17.2817 65.9712 18.0021 8.13207 25.2329 -3.48585 -172.303 7.24973 -4.42265 4.54188e-006 -4.6773e-006 -1.11504 -4.88411 -15.2053 -0.163244 -2.56707e-006 -4.94933e-006 -0.225054 18.4858 67.6945 -19.2954 -8.1365 25.2327 3.48774 
51.4705 90.7124 -2.59737 1.1357 1.50078 -24.6082 0.00934926 -1.1204 0.123865 0.0195396 1.76204 0.237628 0.016705 3.40711 0.237459 -5.17236 35.1225 13.0073 -7.2843 -7.54462 9.35254 65.0314 10.87 5.1653 105.106 20.5582 -41.8965 -7.78907e-008 -1.29604e-007 -3.84131e-006 -58.8105 85.0299 50.8345 6.39534e-006 2.30686e-006 -2.99999 8.03014 -4.9511 0.697585 -58.6883 -5.33196 3.27065 -105.374 19.698 17.9765 -1.66985e-006 -1.44915e-006 8.33877e-006 166.871 78.3729 -157.254 1.26101e-005 7.22856e-006 3 -8.03008 -4.95123 -0.697588 171.003 14.3035 3.84693 -180 7.0154e-015 178.893 178.429 15.0972 179.611 -7.70778e-007 -4.95864e-006 0.132668 -17.2925 65.9866 18.0121 8.13207 25.2329 -3.48585 -172.301 7.23961 -4.42403 4.54188e-006 -4.6773e-006 -1.11505 -4.88207 -15.2039 -0.163217 -2.56707e-006 -4.94933e-006 -0.225021 18.4811 67.6888 -19.2903 -8.1365 25.2327 3.48774 
51.3782 90.6897 -2.59489 1.18044 1.51099 -24.6678 0.00831016 -1.12763 0.12245 0.0175325 1.74757 0.234797 0.01473 3.39264 0.23466 -5.09469 35.1111 13.0638 -7.45048 -7.61682 9.4165 65.0858 10.8491 5.14108 104.918 20.3209 -41.486 -7.78907e-008 -1.29604e-007 -3.84131e-006 -60.4141 85.0661 52.3714 6.39534e-006 2.30686e-006 -2.99999 8.03014 -4.9511 0.697585 -58.687 -5.33445 3.27214 -105.64 19.6615 18.2887 -1.66985e-006 -1.44915e-006 8.33877e-006 166.816 78.2142 -157.095 1.26101e-005 7.22856e-006 3 -8.03008 -4.95123 -0.697588 171.018 14.3382 3.83792 -180 7.0154e-015 178.895 178.426 15.1183 179.611 -7.70778e-007 -4.95864e-006 0.134143 -17.3028 66.0014 18.0217 8.13207 25.2329 -3.48585 -172.297 7.23072 -4.42628 4.54188e-006 -4.6773e-006 -1.11506 -4.88022 -15.2045 -0.163204 -2.56707e-006 -4.94933e-006 -0.225016 18.4766 67.6834 -19.2855 -8.1365 25.2327 3.48774 
